<?xml version="1.0" encoding="utf-8"?>
<svg xmlns="http://www.w3.org/2000/svg" fill="none" height="100%" overflow="visible" preserveAspectRatio="none" style="display: block;" viewBox="0 0 48 48" width="100%">
<g id="Group 2">
<g id="fi_7355437">
<path d="M21.7737 13.9762C20.8007 13.9778 19.8472 14.2497 19.0197 14.7618C18.1922 15.2738 17.5233 16.0057 17.0877 16.8758C16.652 17.7459 16.4668 18.72 16.5526 19.6893C16.6385 20.6586 16.992 21.5849 17.5737 22.365L8.51375 31.425C8.40927 31.5301 8.33827 31.6638 8.30971 31.8092C8.28115 31.9546 8.29632 32.1052 8.35329 32.242C8.41026 32.3788 8.50648 32.4957 8.62981 32.5779C8.75314 32.66 8.89805 32.7038 9.04625 32.7037C9.2443 32.7039 9.43438 32.6257 9.575 32.4862L11.165 30.8925L12.7587 32.4862C12.8271 32.5614 12.91 32.6219 13.0025 32.664C13.0949 32.7062 13.1949 32.7291 13.2965 32.7314C13.3981 32.7337 13.4991 32.7154 13.5933 32.6775C13.6876 32.6396 13.7732 32.583 13.8449 32.511C13.9166 32.439 13.973 32.3533 14.0105 32.2589C14.0481 32.1644 14.066 32.0634 14.0634 31.9618C14.0607 31.8603 14.0374 31.7603 13.9949 31.668C13.9524 31.5757 13.8917 31.493 13.8162 31.425L12.2262 29.835L13.2875 28.7737L14.615 30.0975C14.7585 30.2203 14.943 30.2845 15.1318 30.2772C15.3205 30.27 15.4996 30.1917 15.6332 30.0581C15.7667 29.9246 15.845 29.7455 15.8523 29.5567C15.8596 29.368 15.7954 29.1834 15.6725 29.04L14.3487 27.7125L18.635 23.4262C19.3009 23.9256 20.076 24.2595 20.8963 24.4004C21.7166 24.5413 22.5587 24.4852 23.3531 24.2365C24.1474 23.9879 24.8713 23.554 25.4649 22.9706C26.0586 22.3872 26.505 21.671 26.7673 20.8811C27.0297 20.0911 27.1005 19.2502 26.9739 18.4275C26.8472 17.6048 26.5268 16.8241 26.0391 16.1496C25.5513 15.4752 24.9102 14.9264 24.1685 14.5485C23.4269 14.1706 22.6061 13.9744 21.7737 13.9762ZM24.425 21.8775C23.8114 22.4908 23.0041 22.8725 22.1407 22.9574C21.2773 23.0423 20.4111 22.8252 19.6898 22.3431C18.9685 21.8609 18.4367 21.1436 18.185 20.3133C17.9333 19.4831 17.9773 18.5912 18.3095 17.7897C18.6416 16.9882 19.2414 16.3267 20.0066 15.9179C20.7719 15.509 21.6552 15.3782 22.5061 15.5476C23.357 15.717 24.1228 16.1763 24.673 16.847C25.2233 17.5178 25.5239 18.3586 25.5237 19.2262C25.5235 20.2207 25.1283 21.1744 24.425 21.8775Z" fill="var(--fill-0, #CAA34A)" id="Vector"/>
<path d="M33.2937 10.7963C33.2759 10.6218 33.1975 10.4591 33.0721 10.3365C32.9467 10.2139 32.7823 10.139 32.6075 10.125C29.8786 9.77643 27.2139 9.03763 24.695 7.9313C22.0925 6.84848 19.6688 5.37809 17.5062 3.57005C17.368 3.44356 17.1874 3.37341 17 3.37341C16.8126 3.37341 16.632 3.44356 16.4938 3.57005C14.3323 5.38064 11.9084 6.85242 9.305 7.93505C6.78595 9.0401 4.12124 9.77762 1.3925 10.125C1.21825 10.1389 1.05432 10.2132 0.929021 10.3351C0.803722 10.4569 0.724927 10.6188 0.706249 10.7925C0.646249 11.3813 -0.72625 25.125 2.63375 31.8375C6.65 39.855 16.2762 44.3663 16.685 44.5575C16.7837 44.6032 16.8912 44.6269 17 44.6269C17.1088 44.6269 17.2163 44.6032 17.315 44.5575C17.7237 44.3663 27.35 39.855 31.3662 31.8375C34.7262 25.125 33.3537 11.3813 33.2937 10.7963ZM30.0238 31.1625C26.6488 37.9125 18.68 42.195 17 43.0388C15.32 42.1988 7.36625 37.935 3.97625 31.1625C1.18625 25.6013 1.92125 14.2875 2.14625 11.55C4.81324 11.1349 7.41581 10.3787 9.89 9.30005C12.4389 8.23098 14.8308 6.82059 17 5.10755C19.173 6.82702 21.57 8.24253 24.125 9.31505C26.5992 10.3937 29.2018 11.1499 31.8688 11.565C32.0788 14.2688 32.8138 25.6013 30.0238 31.1625Z" fill="var(--fill-0, #CAA34A)" id="Vector_2"/>
</g>
</g>
</svg>