<?xml version="1.0" encoding="utf-8"?>
<svg xmlns="http://www.w3.org/2000/svg" fill="none" height="100%" overflow="visible" preserveAspectRatio="none" style="display: block;" viewBox="0 0 48 48" width="100%">
<g id="Frame 1">
<g id="fi_1611179">
<path d="M19.5483 25.9218C19.4706 25.905 19.3909 25.9019 19.3122 25.9137C18.5233 25.8219 17.9283 25.1545 17.9269 24.3606C17.9269 23.9801 17.6185 23.6717 17.238 23.6717C16.8575 23.6717 16.5491 23.9801 16.5491 24.3606C16.5511 25.6863 17.4378 26.8475 18.7161 27.1984V27.8873C18.7161 28.2677 19.0246 28.5762 19.405 28.5762C19.7855 28.5762 20.0939 28.2677 20.0939 27.8873V27.2401C21.5693 26.9313 22.5721 25.5571 22.417 24.0579C22.2616 22.5586 20.9985 21.4192 19.4911 21.4189C18.6273 21.4189 17.9269 20.7185 17.9269 19.8547C17.9269 18.9909 18.6273 18.2905 19.4911 18.2905C20.355 18.2905 21.0553 18.9909 21.0553 19.8547C21.0553 20.2351 21.3638 20.5436 21.7442 20.5436C22.1247 20.5436 22.4332 20.2351 22.4332 19.8547C22.4312 18.4627 21.456 17.2622 20.0939 16.9749V16.3479C20.0939 15.9674 19.7855 15.6589 19.405 15.6589C19.0246 15.6589 18.7161 15.9674 18.7161 16.3479V17.0169C17.2945 17.4051 16.3795 18.7853 16.5753 20.2459C16.7711 21.7065 18.0174 22.7967 19.4911 22.7964C20.3435 22.7964 21.0388 23.4789 21.0543 24.331C21.0701 25.1831 20.4 25.8908 19.5483 25.9218Z" fill="var(--fill-0, #CAA34A)" id="Vector"/>
<path d="M9.5011 22.1606C9.5011 27.678 13.9737 32.1506 19.4911 32.1506C25.0086 32.1506 29.4812 27.678 29.4812 22.1606C29.4812 16.6431 25.0086 12.1705 19.4911 12.1705C13.9764 12.1766 9.50749 16.6458 9.5011 22.1606ZM19.4911 13.5484C24.2476 13.5484 28.1033 17.404 28.1033 22.1606C28.1033 26.9171 24.2476 30.7728 19.4911 30.7728C14.7346 30.7728 10.8789 26.9171 10.8789 22.1606C10.8843 17.4064 14.737 13.5538 19.4911 13.5484Z" fill="var(--fill-0, #CAA34A)" id="Vector_2"/>
<path d="M32.8773 33.8491L27.4807 36.3989C26.7356 35.013 25.3063 34.131 23.7333 34.0866L18.7514 33.9497C17.9626 33.9271 17.1886 33.7273 16.4872 33.365L15.9803 33.1023C13.3847 31.7494 10.2909 31.7527 7.69807 33.1111L7.72969 31.9626C7.74011 31.5822 7.44039 31.2653 7.05994 31.2549L1.59701 31.1045C1.21655 31.0941 0.900014 31.3938 0.889586 31.7743L0.55959 43.7624C0.549162 44.1429 0.848883 44.4598 1.22934 44.4702L6.69227 44.6206H6.71111C7.08449 44.6206 7.38993 44.3235 7.40003 43.9505L7.41584 43.3769L8.83505 42.617C9.39211 42.3173 10.0434 42.246 10.6519 42.4182L19.1268 44.7968C19.1416 44.8012 19.1564 44.8046 19.1716 44.8079C19.7841 44.9361 20.4085 45.0003 21.0341 45C22.3595 45.0007 23.6694 44.7151 24.874 44.1621C24.9036 44.1486 24.9322 44.1328 24.9594 44.115L37.2473 36.1668C37.5534 35.9687 37.6523 35.5667 37.4731 35.2491C36.5608 33.6304 34.5374 33.0138 32.8773 33.8491ZM1.95593 43.1119L2.24792 32.5009L6.33334 32.6132L6.04136 43.2246L1.95593 43.1119ZM24.2534 42.9316C22.7568 43.607 21.0853 43.7934 19.4767 43.4647L11.0246 41.0922C10.0733 40.8234 9.05505 40.9348 8.18482 41.4027L7.45957 41.7912L7.65366 34.7362C9.95186 33.2076 12.8993 33.0505 15.3468 34.3258L15.8538 34.5885C16.7398 35.046 17.717 35.2983 18.7137 35.3272L23.696 35.4641C25.0953 35.5045 26.2838 36.5008 26.5677 37.872L19.1467 37.6671C18.7662 37.6567 18.4497 37.9567 18.4389 38.3368C18.4285 38.7173 18.7285 39.0342 19.1087 39.0446L27.2983 39.27H27.3175C27.6906 39.2696 27.9957 38.9726 28.0058 38.5999C28.0142 38.3005 27.992 38.0008 27.9392 37.7061L33.4744 35.0907C33.4798 35.0883 33.4852 35.0857 33.4906 35.083C34.2757 34.6857 35.225 34.8186 35.8708 35.4163L24.2534 42.9316Z" fill="var(--fill-0, #CAA34A)" id="Vector_3"/>
<path d="M20.18 10.2337V3.68892C20.18 3.30847 19.8716 3 19.4911 3C19.1107 3 18.8022 3.30847 18.8022 3.68892V10.2337C18.8022 10.6141 19.1107 10.9226 19.4911 10.9226C19.8716 10.9226 20.18 10.6141 20.18 10.2337Z" fill="var(--fill-0, #CAA34A)" id="Vector_4"/>
<path d="M25.347 10.2336V7.1335C25.347 6.75305 25.0385 6.44458 24.658 6.44458C24.2776 6.44458 23.9691 6.75305 23.9691 7.1335V10.2336C23.9691 10.6141 24.2776 10.9226 24.658 10.9226C25.0385 10.9226 25.347 10.6141 25.347 10.2336Z" fill="var(--fill-0, #CAA34A)" id="Vector_5"/>
<path d="M15.0132 10.2336V7.1335C15.0132 6.75305 14.7047 6.44458 14.3242 6.44458C13.9438 6.44458 13.6353 6.75305 13.6353 7.1335V10.2336C13.6353 10.6141 13.9438 10.9226 14.3242 10.9226C14.7047 10.9226 15.0132 10.6141 15.0132 10.2336Z" fill="var(--fill-0, #CAA34A)" id="Vector_6"/>
</g>
</g>
</svg>