<?xml version="1.0" encoding="utf-8"?>
<svg xmlns="http://www.w3.org/2000/svg" fill="none" height="100%" overflow="visible" preserveAspectRatio="none" style="display: block;" viewBox="0 0 48 48" width="100%">
<g id="Group 3">
<g id="fi_18242014">
<path clip-rule="evenodd" d="M26.8975 10.0537C26.8975 8.13149 27.6755 6.31575 29.0485 4.99364C30.4218 6.31575 31.1996 8.13149 31.1996 10.0537C31.1996 11.6627 30.6523 13.1965 29.6684 14.4301V11.4315C29.6684 11.0884 29.3909 10.8114 29.0485 10.8114C28.7062 10.8114 28.4287 11.0884 28.4287 11.4315V14.4301C27.4448 13.1965 26.8975 11.6627 26.8975 10.0537ZM33.9786 29.8058V42.3836C33.9786 42.8431 33.6054 43.2169 33.1464 43.2169H24.1186V29.8058C24.1186 29.3469 24.4919 28.9735 24.951 28.9735H33.1464C33.6053 28.9734 33.9786 29.3468 33.9786 29.8058ZM13.0187 43.2169V34.9663C13.0187 34.5074 13.3919 34.134 13.8511 34.134H22.8787V43.2169H13.0187ZM1.91847 42.3835V40.1277C1.91847 39.6683 2.29201 39.2949 2.75108 39.2949H11.7787V43.2169H2.75108C2.29201 43.2169 1.91847 42.843 1.91847 42.3835ZM12.314 26.7295C12.6853 27.3724 12.8118 28.1162 12.6827 28.8337C11.9965 28.5866 11.4159 28.1053 11.0446 27.4624C10.6735 26.8195 10.547 26.0762 10.676 25.3582C11.3624 25.6053 11.9427 26.0862 12.314 26.7295ZM14.5905 18.0135C13.8032 17.497 13.2465 16.7153 13.0118 15.8184C13.9282 15.6757 14.8669 15.8746 15.6542 16.3912C16.4416 16.9073 16.9982 17.689 17.2329 18.5859C16.3163 18.7285 15.3777 18.5296 14.5905 18.0135ZM20.243 16.3911C21.0302 15.8746 21.9691 15.6757 22.8853 15.8183C22.651 16.7153 22.0941 17.4969 21.3067 18.0134C20.5195 18.5295 19.5809 18.7285 18.6646 18.5857C18.899 17.6889 19.4557 16.9072 20.243 16.3911ZM25.6904 22.9557C24.903 22.4396 24.3464 21.6575 24.1117 20.76C25.0283 20.6178 25.9669 20.8172 26.7541 21.3327C27.5415 21.8493 28.0981 22.6305 28.3328 23.5279C27.4165 23.6702 26.4778 23.4718 25.6904 22.9557ZM31.343 21.3328C32.1304 20.8172 33.0691 20.6178 33.9854 20.7601C33.7508 21.6576 33.1942 22.4396 32.4069 22.9558C31.6196 23.4719 30.6811 23.6713 29.7646 23.5281C29.999 22.6306 30.5557 21.8495 31.343 21.3328ZM30.3451 24.8133C31.3085 24.8133 32.2603 24.5343 33.0867 23.9924C34.3377 23.172 35.1507 21.848 35.3173 20.3604C35.3504 20.0645 35.1682 19.7866 34.8834 19.6991C33.4522 19.2586 31.914 19.4758 30.6632 20.2967C30.2905 20.5404 29.9578 20.8308 29.6683 21.1554V16.2277C31.4329 14.6575 32.4393 12.424 32.4393 10.0538C32.4393 7.58372 31.3476 5.26321 29.444 3.68612C29.2145 3.49623 28.8823 3.49623 28.6528 3.68612C26.7493 5.2633 25.6575 7.58372 25.6575 10.0538C25.6575 12.424 26.664 14.6575 28.4285 16.2277V21.1554C28.139 20.8308 27.8064 20.5404 27.4339 20.2967C26.1829 19.4758 24.6447 19.2586 23.2135 19.6991C22.9287 19.7867 22.7465 20.0646 22.7797 20.3604C22.9464 21.848 23.7594 23.172 25.0104 23.9924C25.8368 24.5343 26.7884 24.8133 27.7518 24.8133C27.9773 24.8133 28.2032 24.7969 28.4285 24.7666V27.7334H24.9507C23.8079 27.7334 22.8783 28.6632 22.8783 29.8058V32.8944H18.5681V19.8238C18.7934 19.8551 19.0193 19.871 19.2448 19.871C20.2082 19.871 21.16 19.5916 21.9864 19.0502C23.2372 18.2293 24.0504 16.9062 24.2169 15.4176C24.2501 15.1217 24.0679 14.8438 23.7831 14.7564C22.3519 14.3158 20.8137 14.5341 19.5629 15.354C18.8843 15.7995 18.3358 16.3932 17.9482 17.0802C17.5607 16.3932 17.0122 15.7995 16.3336 15.354C15.0829 14.534 13.5445 14.3158 12.1134 14.7564C11.8286 14.8438 11.6464 15.1218 11.6795 15.4176C11.8461 16.9063 12.6593 18.2293 13.9103 19.0502C14.7365 19.5921 15.6883 19.871 16.6517 19.871C16.877 19.871 17.1031 19.8551 17.3284 19.8238V32.8944H13.8506C12.708 32.8944 11.7783 33.8242 11.7783 34.9663V38.0549H7.19021V25.6477C7.19021 24.8954 7.80221 24.2828 8.55447 24.2828C8.79533 24.2828 9.14554 24.3405 9.53741 24.7781C9.23809 25.8903 9.38861 27.0747 9.97047 28.0825C10.6208 29.2087 11.7298 29.9794 13.013 30.1977C13.0477 30.2031 13.0825 30.2066 13.1171 30.2066C13.3722 30.2066 13.6065 30.048 13.698 29.8023C14.1507 28.5817 14.0374 27.2358 13.3872 26.1096C12.7687 25.0386 11.7344 24.2894 10.5302 24.0318C9.9769 23.3765 9.31364 23.0434 8.55447 23.0434C7.11879 23.0434 5.95057 24.2118 5.95057 25.6478V38.0551H2.75108C1.60829 38.0551 0.678726 38.9853 0.678726 40.1279V42.3837C0.678726 43.5268 1.60829 44.4566 2.75108 44.4566H33.1463C34.2887 44.4566 35.2184 43.5268 35.2184 42.3837V29.8058C35.2184 28.6632 34.2886 27.7334 33.1463 27.7334H29.6683V24.7666C29.8937 24.7969 30.1196 24.8133 30.3451 24.8133Z" fill="var(--fill-0, #CAA34A)" fill-rule="evenodd" id="Vector"/>
</g>
</g>
</svg>