<?xml version="1.0" encoding="utf-8"?>
<svg xmlns="http://www.w3.org/2000/svg" fill="none" height="100%" width="100%" viewBox="0 0 40 40" preserveAspectRatio="none" overflow="visible" style="display: block;"><g transform="translate(-40 0)"><g id="linkedin-02">
<path d="M55.4167 17.9167H51.6667V28.3333H55.4167V17.9167Z" id="Vector_2" stroke="var(--stroke-0, #141B34)" stroke-linejoin="round" stroke-width="1.25" />
<path d="M55.4167 13.5417C55.4167 14.5772 54.5772 15.4167 53.5417 15.4167C52.5061 15.4167 51.6667 14.5772 51.6667 13.5417C51.6667 12.5061 52.5061 11.6667 53.5417 11.6667C54.5772 11.6667 55.4167 12.5061 55.4167 13.5417Z" id="Vector_3" stroke="var(--stroke-0, #141B34)" stroke-linejoin="round" stroke-width="1.25" />
<path d="M61.6668 17.9167H57.9167V28.3333H61.6668V23.1252C61.6668 22.3198 62.3196 21.6668 63.125 21.6668C63.9304 21.6668 64.5833 22.3198 64.5833 23.1252V28.3333H68.3322L68.3334 21.6668C68.3334 19.5958 66.3637 17.9169 64.414 17.9169C63.3041 17.9169 62.3139 18.4609 61.6668 19.3117V17.9167Z" id="Vector_4" stroke="var(--stroke-0, #141B34)" stroke-linejoin="round" stroke-width="1.25" />
</g>
</g></svg>